<?xml version="1.0" standalone="no"?>
<!DOCTYPE svg PUBLIC "-//W3C//DTD SVG 20010904//EN"
 "http://www.w3.org/TR/2001/REC-SVG-20010904/DTD/svg10.dtd">
<svg version="1.0" xmlns="http://www.w3.org/2000/svg"
 width="1669.000000pt" height="1669.000000pt" viewBox="0 0 1669.000000 1669.000000"
 preserveAspectRatio="xMidYMid meet">

<g transform="translate(0.000000,1669.000000) scale(0.100000,-0.100000)"
fill="#000000" stroke="none">
<path d="M7410 16638 c-141 -20 -313 -93 -430 -184 -290 -223 -417 -616 -315
-974 56 -196 199 -398 363 -508 31 -22 140 -82 242 -134 403 -208 690 -411
971 -691 344 -342 619 -746 794 -1167 15 -36 33 -78 40 -95 45 -102 157 -454
185 -585 92 -417 104 -519 104 -850 0 -206 -4 -305 -17 -395 -49 -343 -124
-608 -272 -963 -67 -161 -75 -188 -75 -244 0 -81 28 -131 95 -175 63 -42 139
-46 205 -10 53 27 128 110 169 186 17 31 42 74 56 96 65 107 147 260 247 465
117 240 114 234 149 325 12 33 25 65 29 70 7 11 91 266 108 330 6 22 18 65 26
95 8 30 25 96 36 145 11 50 25 108 30 130 73 310 100 567 100 942 0 363 -27
644 -90 938 -5 28 -13 64 -16 80 -39 190 -170 604 -250 793 -256 602 -588
1098 -1054 1576 -289 296 -687 626 -859 711 -180 90 -374 121 -571 93z"/>
<path d="M11200 16044 c-340 -65 -602 -290 -713 -613 -80 -233 -58 -525 57
-736 18 -33 67 -112 108 -175 226 -346 372 -648 478 -990 18 -58 36 -116 40
-130 13 -37 57 -245 70 -325 6 -38 15 -97 21 -130 30 -195 37 -540 14 -810
-13 -161 -45 -389 -65 -465 -5 -19 -19 -78 -30 -130 -47 -207 -146 -514 -229
-710 -53 -124 -168 -338 -245 -455 -239 -364 -477 -611 -875 -910 -122 -91
-145 -114 -173 -174 -40 -86 -19 -172 58 -240 92 -81 234 -58 444 73 30 19 84
52 120 72 145 84 483 308 585 389 21 17 65 52 99 78 101 80 398 365 491 471 6
6 48 54 95 106 135 150 194 224 302 379 71 101 208 317 208 327 0 3 8 18 19
32 32 47 197 381 231 472 7 19 17 39 22 45 4 5 8 15 8 22 0 7 9 32 19 56 47
106 121 328 171 517 137 515 186 1052 145 1579 -19 237 -49 461 -85 626 -5 22
-14 65 -21 95 -84 389 -286 979 -411 1196 -51 90 -176 227 -263 290 -78 55
-205 115 -305 144 -58 17 -108 23 -220 25 -80 2 -156 1 -170 -1z"/>
<path d="M3790 15250 c-206 -45 -356 -127 -496 -272 -115 -117 -196 -263 -234
-417 -30 -117 -30 -314 -1 -431 74 -298 308 -553 600 -655 127 -45 222 -58
351 -50 181 12 664 10 780 -2 180 -20 373 -54 535 -94 22 -6 55 -13 73 -16 18
-3 35 -9 38 -14 3 -5 16 -9 30 -9 13 0 32 -4 42 -9 9 -5 55 -22 102 -37 259
-82 642 -278 905 -462 55 -39 105 -74 110 -79 6 -4 33 -26 60 -48 149 -119
251 -210 386 -345 210 -209 300 -314 441 -512 209 -296 351 -585 450 -918 34
-115 61 -214 68 -255 4 -22 15 -76 23 -120 14 -72 24 -138 57 -387 18 -142 83
-229 179 -242 119 -16 210 41 248 154 16 49 18 92 18 390 -1 497 -26 764 -106
1100 -4 19 -11 49 -15 65 -20 94 -128 457 -145 487 -5 10 -9 24 -9 32 0 14
-11 44 -80 216 -85 212 -178 401 -278 565 -30 50 -60 99 -66 110 -56 101 -244
358 -390 533 -292 351 -643 660 -1076 947 -105 69 -297 177 -465 260 -525 258
-1060 419 -1698 510 -208 29 -319 31 -437 5z"/>
<path d="M14260 13629 c-202 -20 -402 -115 -549 -261 -137 -136 -213 -272
-261 -464 -20 -83 -21 -101 -15 -453 4 -208 2 -426 -3 -506 -10 -132 -40 -352
-61 -440 -6 -22 -19 -80 -31 -130 -34 -145 -105 -369 -155 -490 -52 -125 -76
-177 -141 -302 -85 -165 -176 -314 -283 -463 -67 -93 -207 -270 -257 -325 -11
-11 -62 -67 -114 -124 -95 -104 -285 -280 -435 -403 -156 -127 -382 -273 -567
-365 -59 -29 -110 -53 -113 -53 -3 0 -27 -10 -53 -21 -99 -45 -115 -51 -170
-70 -261 -90 -549 -154 -875 -194 -145 -17 -199 -38 -251 -95 -40 -44 -51 -88
-43 -167 9 -87 65 -145 173 -178 39 -12 117 -15 373 -15 307 0 437 6 646 31
170 20 393 61 545 101 63 16 132 34 152 39 21 5 55 15 75 23 21 7 79 26 128
40 50 15 98 31 107 37 10 5 24 9 32 9 7 0 35 9 62 19 27 11 81 32 119 46 39
15 74 31 79 36 6 5 16 9 24 9 19 0 360 170 452 226 41 24 83 47 93 51 9 3 17
9 17 14 0 5 5 9 10 9 24 0 336 216 473 327 179 144 475 428 618 593 102 117
310 388 354 461 6 9 23 36 39 60 80 124 99 154 164 269 78 137 192 369 241
490 24 58 49 119 56 135 33 77 110 303 163 480 79 260 160 674 191 977 30 283
-69 566 -269 769 -193 195 -468 295 -740 268z"/>
<path d="M2945 12666 c-223 -21 -456 -56 -645 -97 -101 -22 -345 -84 -395
-100 -358 -114 -620 -211 -770 -286 -186 -94 -343 -257 -432 -451 -115 -249
-112 -559 7 -794 53 -104 100 -166 186 -249 96 -91 213 -164 329 -204 126 -43
159 -48 315 -48 139 0 164 2 244 26 129 39 250 103 436 234 14 10 34 23 45 29
11 6 61 35 110 64 173 101 450 231 595 280 36 12 74 25 85 29 165 67 503 139
795 170 292 32 739 14 1015 -39 342 -67 401 -81 660 -168 462 -154 736 -306
1109 -616 172 -143 425 -419 566 -617 60 -85 127 -157 165 -177 41 -21 141
-21 182 1 78 41 117 106 117 192 0 95 -16 133 -184 420 -165 282 -358 558
-539 770 -146 172 -481 494 -671 647 -422 338 -942 613 -1475 778 -38 12 -88
28 -110 35 -50 16 -316 79 -415 99 -126 24 -291 49 -450 67 -146 17 -711 20
-875 5z"/>
<path d="M3931 10239 c-141 -8 -436 -42 -516 -59 -22 -5 -67 -14 -100 -20
-246 -49 -696 -181 -851 -250 -24 -11 -64 -29 -89 -40 -25 -11 -47 -20 -50
-20 -16 0 -342 -165 -460 -233 -272 -156 -585 -378 -799 -567 -124 -109 -164
-147 -301 -284 -195 -196 -364 -392 -528 -611 -242 -324 -283 -690 -115 -1031
111 -226 327 -401 583 -473 300 -84 654 16 886 250 98 99 110 118 228 346 299
579 621 974 1093 1335 86 67 245 178 253 178 3 0 31 17 62 37 67 43 109 66
253 138 94 47 131 64 235 110 47 21 265 100 315 114 25 7 54 17 65 21 11 4 38
13 60 19 22 6 65 18 95 27 30 9 73 20 95 24 22 4 105 21 185 38 80 17 183 35
230 42 47 6 108 16 135 22 60 12 605 4 710 -11 170 -23 406 -71 495 -100 14
-5 59 -19 100 -31 41 -13 89 -28 105 -35 17 -7 41 -16 55 -20 39 -12 218 -84
287 -115 109 -50 163 -59 236 -39 113 31 181 184 128 287 -32 60 -116 136
-211 190 -19 11 -93 53 -165 94 -198 112 -530 277 -660 328 -11 4 -37 16 -58
25 -132 58 -561 179 -827 234 -236 48 -366 65 -610 81 -185 11 -337 11 -549
-1z"/>
<path d="M15590 10026 c-259 -49 -489 -196 -624 -400 -18 -28 -66 -116 -106
-195 -134 -264 -242 -441 -387 -634 -247 -329 -593 -654 -917 -862 -132 -85
-268 -161 -396 -222 -41 -20 -102 -49 -134 -64 -33 -16 -63 -29 -68 -29 -4 0
-27 -9 -51 -19 -117 -52 -288 -108 -557 -181 -103 -28 -317 -71 -440 -89 -41
-6 -111 -16 -155 -22 -92 -13 -575 -6 -695 10 -162 21 -318 54 -465 96 -49 15
-103 30 -120 34 -57 16 -261 94 -400 154 -206 89 -294 89 -377 0 -36 -39 -60
-114 -52 -166 9 -56 24 -85 72 -134 56 -57 96 -84 282 -188 41 -23 95 -54 120
-69 43 -24 400 -203 521 -260 59 -28 147 -61 269 -103 41 -14 84 -29 95 -34
44 -18 363 -101 495 -129 25 -6 74 -16 110 -24 252 -57 468 -76 845 -76 318 0
508 13 730 51 33 5 87 14 120 20 33 5 78 14 100 20 22 6 51 13 65 15 110 22
353 88 382 104 10 6 27 10 38 10 11 0 28 4 38 10 9 5 46 19 82 31 87 28 186
66 235 89 22 10 88 39 147 65 613 262 1251 741 1757 1320 307 351 429 537 475
728 56 230 22 491 -91 691 -107 188 -284 340 -481 410 -147 52 -321 68 -462
42z"/>
<path d="M6030 8554 c-383 -16 -725 -64 -1025 -144 -182 -48 -524 -160 -645
-210 -41 -17 -93 -38 -115 -47 -107 -45 -386 -190 -509 -266 -349 -215 -604
-416 -894 -705 -332 -330 -577 -654 -806 -1066 -301 -539 -513 -1184 -606
-1841 -6 -44 -15 -107 -21 -141 -14 -91 -11 -263 6 -343 58 -276 219 -502 458
-642 139 -82 278 -119 449 -119 405 0 765 270 881 660 40 132 53 255 38 353
-9 59 -11 170 -7 392 5 328 18 487 55 665 24 122 32 155 51 232 23 92 27 103
71 238 69 210 225 557 300 667 16 23 29 44 29 47 0 3 13 25 29 48 16 24 41 63
57 88 126 199 346 460 581 690 104 102 213 205 243 230 86 72 242 189 299 225
8 6 40 26 71 46 110 72 291 165 490 252 19 9 94 35 165 58 72 23 139 45 150
49 36 13 149 42 195 50 25 4 81 15 125 23 92 19 236 40 380 58 108 13 165 33
206 71 51 47 63 77 63 147 -1 114 -51 178 -169 217 -39 13 -100 17 -285 19
-129 1 -269 1 -310 -1z"/>
<path d="M6719 7640 c-61 -21 -124 -54 -263 -137 -49 -29 -90 -53 -92 -53 -10
0 -417 -269 -513 -340 -29 -22 -88 -68 -130 -102 -42 -35 -89 -74 -106 -88
-49 -40 -414 -408 -500 -504 -195 -218 -381 -481 -538 -761 -41 -75 -141 -274
-159 -320 -9 -22 -30 -69 -46 -105 -50 -107 -137 -346 -192 -525 -35 -115 -74
-276 -114 -470 -70 -340 -100 -888 -68 -1250 21 -232 59 -503 92 -650 5 -22
15 -65 21 -95 77 -347 254 -876 370 -1103 100 -197 236 -331 434 -428 131 -64
231 -89 376 -96 437 -21 816 273 925 717 18 73 18 337 0 410 -34 139 -66 204
-184 385 -255 389 -417 736 -525 1125 -19 69 -37 139 -40 155 -7 43 -26 142
-38 200 -36 174 -54 535 -40 799 7 116 16 240 21 276 13 100 29 200 39 250 5
25 12 63 16 85 19 104 107 414 165 580 66 189 174 431 249 556 9 15 29 49 45
76 16 26 42 66 58 88 16 22 57 79 91 126 190 265 431 504 747 741 155 117 165
126 190 177 40 81 22 188 -42 248 -58 55 -151 67 -249 33z"/>
<path d="M9153 7024 c-12 -3 -45 -26 -73 -51 -90 -81 -99 -171 -29 -318 59
-124 247 -437 365 -610 8 -11 26 -38 40 -60 62 -94 209 -283 304 -390 19 -22
105 -110 190 -195 371 -372 568 -530 955 -767 337 -205 806 -397 1245 -509
215 -55 291 -69 535 -102 240 -32 385 -42 615 -42 316 0 576 24 965 89 87 15
435 101 530 132 294 94 379 124 549 193 225 92 323 151 437 265 278 278 355
696 191 1044 -165 350 -508 547 -911 523 -181 -11 -303 -59 -532 -208 -185
-122 -322 -201 -479 -276 -181 -87 -257 -118 -445 -184 -16 -5 -39 -13 -50
-18 -67 -25 -321 -87 -450 -109 -33 -6 -73 -13 -90 -16 -204 -40 -701 -53
-930 -24 -264 33 -534 86 -720 141 -496 147 -824 302 -1155 547 -190 141 -465
407 -609 591 -45 58 -87 112 -94 120 -7 8 -30 40 -51 70 -87 122 -140 161
-225 165 -31 2 -66 1 -78 -1z"/>
<path d="M7370 6999 c-49 -29 -76 -56 -119 -114 -62 -84 -201 -330 -325 -575
-64 -128 -87 -176 -141 -305 -7 -16 -22 -50 -33 -75 -113 -259 -244 -773 -303
-1185 -19 -133 -21 -194 -20 -540 0 -383 1 -394 31 -600 33 -225 41 -269 60
-355 27 -121 66 -279 80 -325 5 -16 19 -59 30 -95 11 -36 24 -78 29 -95 17
-56 83 -240 103 -285 11 -25 24 -54 29 -65 216 -504 458 -893 814 -1310 186
-218 517 -538 719 -695 10 -8 33 -27 50 -41 177 -147 314 -231 448 -276 270
-91 502 -64 793 90 99 53 246 208 315 332 86 155 130 367 110 525 -30 237
-101 393 -250 553 -97 103 -160 147 -375 257 -418 213 -710 422 -1010 724
-226 226 -393 444 -557 721 -55 94 -188 355 -188 370 0 2 -12 30 -26 62 -14
32 -30 68 -35 81 -5 12 -13 32 -18 45 -82 195 -205 660 -239 905 -7 45 -17
117 -23 160 -11 80 -7 641 5 717 54 330 77 429 141 615 15 41 35 100 45 130
20 63 78 205 121 299 79 171 55 286 -73 352 -52 27 -142 26 -188 -2z"/>
<path d="M8244 6765 c-55 -27 -88 -69 -111 -142 -21 -63 -29 -463 -13 -688 19
-285 29 -399 40 -460 6 -33 15 -85 20 -115 19 -117 54 -268 114 -493 26 -93
151 -466 181 -537 124 -294 266 -555 447 -820 100 -148 158 -223 293 -385 214
-256 608 -622 837 -779 18 -12 83 -56 144 -98 201 -137 558 -335 754 -417 30
-13 75 -32 100 -44 180 -81 651 -230 875 -277 33 -7 74 -16 90 -20 39 -11 297
-55 405 -70 47 -6 112 -16 146 -21 177 -27 413 14 563 98 250 139 417 344 482
591 32 118 36 293 11 409 -83 371 -359 644 -734 724 -93 20 -116 21 -248 13
-295 -17 -701 -10 -860 16 -30 5 -89 14 -130 20 -338 53 -660 156 -980 312
-463 227 -891 557 -1259 973 -498 562 -747 1133 -836 1915 -17 145 -31 193
-73 248 -55 73 -166 93 -258 47z"/>
</g>
</svg>
